<?xml version="1.0" standalone="no"?><svg xmlns="http://www.w3.org/2000/svg" viewBox="0 0 1440 320"><path fill="#fbfcfd" fill-opacity="1" d="M0,64L40,90.7C80,117,160,171,240,192C320,213,400,203,480,186.7C560,171,640,149,720,154.7C800,160,880,192,960,181.3C1040,171,1120,117,1200,101.3C1280,85,1360,107,1400,117.3L1440,128L1440,320L1400,320C1360,320,1280,320,1200,320C1120,320,1040,320,960,320C880,320,800,320,720,320C640,320,560,320,480,320C400,320,320,320,240,320C160,320,80,320,40,320L0,320Z"></path></svg>